HIERARCHY
ROOT reference
{
  OFFSET 0 0 0
  CHANNELS 6 Xposition Yposition Zposition Zrotation Xrotation Yrotation
  JOINT Hips
  {
    OFFSET 339.145 90.8604 236.464
    CHANNELS 3 Zrotation Xrotation Yrotation
    JOINT RightUpLeg
    {
      OFFSET -9.24113 -1.522 -0.0337757
      CHANNELS 3 Zrotation Xrotation Yrotation
      JOINT RightLeg
      {
        OFFSET 0.0344394 -41.8985 0.100154
        CHANNELS 3 Zrotation Xrotation Yrotation
        JOINT RightFoot
        {
          OFFSET -0.415571 -42.0751 0.023027
          CHANNELS 3 Zrotation Xrotation Yrotation
          End Site
          {
            OFFSET 0 -7.69 17.5
          }
        }
      }
    }
    JOINT LeftUpLeg
    {
      OFFSET 9.30897 -1.67379 -0.0291548
      CHANNELS 3 Zrotation Xrotation Yrotation
      JOINT LeftLeg
      {
        OFFSET 0.0832755 -41.864 -0.14338
        CHANNELS 3 Zrotation Xrotation Yrotation
        JOINT LeftFoot
        {
          OFFSET 0.17151 -41.5225 0.735469
          CHANNELS 3 Zrotation Xrotation Yrotation
          End Site
          {
            OFFSET 0 -7.69 17.5
          }
        }
      }
    }
    JOINT Spine
    {
      OFFSET 0.00853273 14.2903 0.0777264
      CHANNELS 3 Zrotation Xrotation Yrotation
      JOINT Spine1
      {
        OFFSET 0.0173944 9.71323 0.029081
        CHANNELS 3 Zrotation Xrotation Yrotation
        JOINT Spine2
        {
          OFFSET 0.0412483 10.1247 -0.0145163
          CHANNELS 3 Zrotation Xrotation Yrotation
          JOINT Spine3
          {
            OFFSET 0.0279063 9.71793 0.00755232
            CHANNELS 3 Zrotation Xrotation Yrotation
            JOINT Neck
            {
              OFFSET 0.0852486 10.3712 0.0268485
              CHANNELS 3 Zrotation Xrotation Yrotation
              JOINT Head
              {
                OFFSET 0.0739267 9.48251 0.0332551
                CHANNELS 3 Zrotation Xrotation Yrotation
                End Site
                {
                  OFFSET 0 15.95 0
                }
              }
            }
            JOINT RightShoulder
            {
              OFFSET -3.14957 6.95772 0.0300988
              CHANNELS 3 Zrotation Xrotation Yrotation
              JOINT RightArm
              {
                OFFSET -12.7513 0.0411148 0.0791701
                CHANNELS 3 Zrotation Xrotation Yrotation
                JOINT RightForeArm
                {
                  OFFSET -26.4959 0.0361336 0.259434
                  CHANNELS 3 Zrotation Xrotation Yrotation
                  JOINT RightHand
                  {
                    OFFSET -25.9829 -0.0837334 0.191464
                    CHANNELS 3 Zrotation Xrotation Yrotation
                    JOINT RightHandThumb1
                    {
                      OFFSET -2.48905 0.190105 3.12053
                      CHANNELS 3 Zrotation Xrotation Yrotation
                      JOINT RightHandThumb2
                      {
                        OFFSET -3.68274 0 0
                        CHANNELS 3 Zrotation Xrotation Yrotation
                        JOINT RightHandThumb3
                        {
                          OFFSET -2.55832 0 0
                          CHANNELS 3 Zrotation Xrotation Yrotation
                          End Site
                          {
                            OFFSET -2.194 0 0
                          }
                        }
                      }
                    }
                    JOINT RightInHandIndex
                    {
                      OFFSET -3.22368 0.508421 1.97842
                      CHANNELS 3 Zrotation Xrotation Yrotation
                      JOINT RightHandIndex1
                      {
                        OFFSET -5.21684 -0.091368 0.999158
                        CHANNELS 3 Zrotation Xrotation Yrotation
                        JOINT RightHandIndex2
                        {
                          OFFSET -3.61937 0 0
                          CHANNELS 3 Zrotation Xrotation Yrotation
                          JOINT RightHandIndex3
                          {
                            OFFSET -2.0521 0 0
                            CHANNELS 3 Zrotation Xrotation Yrotation
                            End Site
                            {
                              OFFSET -1.805 0 0
                            }
                          }
                        }
                      }
                    }
                    JOINT RightInHandMiddle
                    {
                      OFFSET -3.38211 0.517263 0.756737
                      CHANNELS 3 Zrotation Xrotation Yrotation
                      JOINT RightHandMiddle1
                      {
                        OFFSET -5.17411 -0.084 0.313895
                        CHANNELS 3 Zrotation Xrotation Yrotation
                        JOINT RightHandMiddle2
                        {
                          OFFSET -3.94947 0 0
                          CHANNELS 3 Zrotation Xrotation Yrotation
                          JOINT RightHandMiddle3
                          {
                            OFFSET -2.47579 0 0
                            CHANNELS 3 Zrotation Xrotation Yrotation
                            End Site
                            {
                              OFFSET -1.975 0 0
                            }
                          }
                        }
                      }
                    }
                    JOINT RightInHandRing
                    {
                      OFFSET -3.36516 0.537895 -0.128947
                      CHANNELS 3 Zrotation Xrotation Yrotation
                      JOINT RightHandRing1
                      {
                        OFFSET -4.63474 -0.022105 -0.478947
                        CHANNELS 3 Zrotation Xrotation Yrotation
                        JOINT RightHandRing2
                        {
                          OFFSET -3.44238 0 0
                          CHANNELS 3 Zrotation Xrotation Yrotation
                          JOINT RightHandRing3
                          {
                            OFFSET -2.3881 0 0
                            CHANNELS 3 Zrotation Xrotation Yrotation
                            End Site
                            {
                              OFFSET -1.857 0 0
                            }
                          }
                        }
                      }
                    }
                    JOINT RightInHandPinky
                    {
                      OFFSET -3.16105 0.469368 -1.20179
                      CHANNELS 3 Zrotation Xrotation Yrotation
                      JOINT RightHandPinky1
                      {
                        OFFSET -4.14105 -0.022105 -1.09053
                        CHANNELS 3 Zrotation Xrotation Yrotation
                        JOINT RightHandPinky2
                        {
                          OFFSET -2.75653 0 0
                          CHANNELS 3 Zrotation Xrotation Yrotation
                          JOINT RightHandPinky3
                          {
                            OFFSET -1.74189 0 0
                            CHANNELS 3 Zrotation Xrotation Yrotation
                            End Site
                            {
                              OFFSET -1.645 0 0
                            }
                          }
                        }
                      }
                    }
                  }
                }
              }
            }
            JOINT LeftShoulder
            {
              OFFSET 3.25273 6.91522 -0.0295735
              CHANNELS 3 Zrotation Xrotation Yrotation
              JOINT LeftArm
              {
                OFFSET 12.7785 0.0134102 -0.0213482
                CHANNELS 3 Zrotation Xrotation Yrotation
                JOINT LeftForeArm
                {
                  OFFSET 26.5044 -0.0446277 0.0404034
                  CHANNELS 3 Zrotation Xrotation Yrotation
                  JOINT LeftHand
                  {
                    OFFSET 25.9955 -0.0467726 -0.0166804
                    CHANNELS 3 Zrotation Xrotation Yrotation
                    JOINT LeftHandThumb1
                    {
                      OFFSET 2.48905 0.190105 3.12053
                      CHANNELS 3 Zrotation Xrotation Yrotation
                      JOINT LeftHandThumb2
                      {
                        OFFSET 3.68274 0 0
                        CHANNELS 3 Zrotation Xrotation Yrotation
                        JOINT LeftHandThumb3
                        {
                          OFFSET 2.55832 0 0
                          CHANNELS 3 Zrotation Xrotation Yrotation
                          End Site
                          {
                            OFFSET 2.194 0 0
                          }
                        }
                      }
                    }
                    JOINT LeftInHandIndex
                    {
                      OFFSET 3.22368 0.508421 1.97842
                      CHANNELS 3 Zrotation Xrotation Yrotation
                      JOINT LeftHandIndex1
                      {
                        OFFSET 5.21684 -0.091368 0.999158
                        CHANNELS 3 Zrotation Xrotation Yrotation
                        JOINT LeftHandIndex2
                        {
                          OFFSET 3.61937 0 0
                          CHANNELS 3 Zrotation Xrotation Yrotation
                          JOINT LeftHandIndex3
                          {
                            OFFSET 2.0521 0 0
                            CHANNELS 3 Zrotation Xrotation Yrotation
                            End Site
                            {
                              OFFSET 1.805 0 0
                            }
                          }
                        }
                      }
                    }
                    JOINT LeftInHandMiddle
                    {
                      OFFSET 3.38211 0.517263 0.756737
                      CHANNELS 3 Zrotation Xrotation Yrotation
                      JOINT LeftHandMiddle1
                      {
                        OFFSET 5.17411 -0.084 0.313895
                        CHANNELS 3 Zrotation Xrotation Yrotation
                        JOINT LeftHandMiddle2
                        {
                          OFFSET 3.94947 0 0
                          CHANNELS 3 Zrotation Xrotation Yrotation
                          JOINT LeftHandMiddle3
                          {
                            OFFSET 2.47579 0 0
                            CHANNELS 3 Zrotation Xrotation Yrotation
                            End Site
                            {
                              OFFSET 1.975 0 0
                            }
                          }
                        }
                      }
                    }
                    JOINT LeftInHandRing
                    {
                      OFFSET 3.36516 0.537895 -0.128947
                      CHANNELS 3 Zrotation Xrotation Yrotation
                      JOINT LeftHandRing1
                      {
                        OFFSET 4.63474 -0.022105 -0.478947
                        CHANNELS 3 Zrotation Xrotation Yrotation
                        JOINT LeftHandRing2
                        {
                          OFFSET 3.44238 0 0
                          CHANNELS 3 Zrotation Xrotation Yrotation
                          JOINT LeftHandRing3
                          {
                            OFFSET 2.3881 0 0
                            CHANNELS 3 Zrotation Xrotation Yrotation
                            End Site
                            {
                              OFFSET 1.857 0 0
                            }
                          }
                        }
                      }
                    }
                    JOINT LeftInHandPinky
                    {
                      OFFSET 3.16105 0.469368 -1.20179
                      CHANNELS 3 Zrotation Xrotation Yrotation
                      JOINT LeftHandPinky1
                      {
                        OFFSET 4.14105 -0.022105 -1.09053
                        CHANNELS 3 Zrotation Xrotation Yrotation
                        JOINT LeftHandPinky2
                        {
                          OFFSET 2.75653 0 0
                          CHANNELS 3 Zrotation Xrotation Yrotation
                          JOINT LeftHandPinky3
                          {
                            OFFSET 1.74189 0 0
                            CHANNELS 3 Zrotation Xrotation Yrotation
                            End Site
                            {
                              OFFSET 1.645 0 0
                            }
                          }
                        }
                      }
                    }
                  }
                }
              }
            }
          }
        }
      }
    }
  }
}
MOTION
Frames: 2
Frame Time: 0.00833333
4.500000000000000000e+02 0.000000000000000000e+00 0.000000000000000000e+00 0.000000000000000000e+00 0.000000000000000000e+00 0.000000000000000000e+00 -2.200150815033357354e-01 -6.739539600209265569e-02 -4.087285448989110281e-01 -2.627181096422006590e-01 2.201083015717792690e-01 7.498650629147576852e-02 -1.518073071575238853e-01 2.747032083267826330e-01 3.266163866464860677e-01 1.657128319866478516e-01 -8.565909633866215789e-02 -1.349113606577604096e-01 -4.661790818474659259e-01 2.251121877274099015e-01 1.858231187957490316e-01 2.160828610748422862e-01 5.237750581642992148e-02 -1.409370269190808600e-02 -2.062683688217850364e-01 -1.284384628519399107e-01 -3.047904893079161903e-01 -1.489157668314370631e-01 -1.431377684189884258e-01 4.912894158999800420e-01 -3.306344375894876980e-02 -3.790961317862939078e-02 1.294866501502302814e-01 -5.553439725743668232e-02 -3.695116849047462571e-02 2.086942436280190549e-01 3.089750611548423929e-03 4.121691997570824800e-03 -9.892357558660417466e-03 6.627619881748487984e-03 5.459126197396292623e-02 -7.279400023328004565e-03 1.115812223497086864e-01 5.344120733962691785e-03 -3.748530445188272275e-01 -2.109396176982057669e-01 -2.718304455835673927e-01 -6.358444996651247960e-01 -7.306269900289238950e-02 -7.811448823396027752e-02 -9.273393612465901104e-01 4.197727285778738993e-01 2.109803557834445620e+00 -6.254887175099155261e-01 -5.081834871872781267e-01 1.350731726003418620e+00 1.107430876844148759e+00 0.000000000000000000e+00 0.000000000000000000e+00 0.000000000000000000e+00 -4.299805984531033120e-15 -6.585860862584585940e-15 0.000000000000000000e+00 3.196484463220396763e-16 -6.502568082218455762e-15 0.000000000000000000e+00 -2.249963494951009906e-15 3.493751507298032821e-15 1.131679632444043678e-15 0.000000000000000000e+00 0.000000000000000000e+00 0.000000000000000000e+00 0.000000000000000000e+00 6.260739895095298800e-16 -3.076106676261098298e-15 0.000000000000000000e+00 3.310927425683649355e-15 -1.640799458500258921e-15 -2.249963494951009906e-15 3.493751507298032821e-15 1.131679632444043678e-15 0.000000000000000000e+00 1.304351052745882809e-15 -1.422734132547213515e-15 0.000000000000000000e+00 -6.010469144905567216e-16 -5.725765654433835658e-16 0.000000000000000000e+00 1.568080533455873541e-15 3.008268212911601782e-16 -2.249963494951009906e-15 3.493751507298032821e-15 1.131679632444043678e-15 0.000000000000000000e+00 0.000000000000000000e+00 0.000000000000000000e+00 0.000000000000000000e+00 4.065308057679460867e-15 4.418858450438036775e-15 0.000000000000000000e+00 -4.681807361436195556e-16 7.398447644920860269e-16 -2.249963494951009906e-15 3.493751507298032821e-15 1.131679632444043678e-15 0.000000000000000000e+00 0.000000000000000000e+00 0.000000000000000000e+00 0.000000000000000000e+00 6.153330837261096619e-16 4.224199318373857872e-17 0.000000000000000000e+00 7.989479573842914292e-16 7.465689486364808573e-16 3.629388687215872045e-01 -1.650092988540155514e-01 5.812548348893415567e-02 -5.119325958286686795e-01 -9.697781259228535622e-02 -2.298418379210083462e-02 -8.882649792963692725e-01 3.819740357712174128e-01 -4.737083931498622391e-01 -2.414404985835349460e-01 3.030690762862094378e-01 -5.772911110101153209e-01 0.000000000000000000e+00 0.000000000000000000e+00 0.000000000000000000e+00 -3.469527715322376107e-15 2.308533554450961699e-15 0.000000000000000000e+00 -3.348687420205240367e-15 3.490804239747623941e-15 0.000000000000000000e+00 -2.120336450503426876e-15 4.602382828582303887e-16 7.641648209990928259e-16 0.000000000000000000e+00 0.000000000000000000e+00 0.000000000000000000e+00 0.000000000000000000e+00 5.198021705161448760e-16 -4.251960812541229838e-15 0.000000000000000000e+00 4.412848935678829307e-16 -2.388905128090172570e-15 -2.120336450503426876e-15 4.602382828582303887e-16 7.641648209990928259e-16 0.000000000000000000e+00 5.272183454717683229e-16 -2.080465865932404813e-15 0.000000000000000000e+00 9.195095968393265266e-16 -4.017740479935962240e-15 0.000000000000000000e+00 1.172837576037695034e-15 -1.012760254867744774e-15 -2.120336450503426876e-15 4.602382828582303887e-16 7.641648209990928259e-16 0.000000000000000000e+00 0.000000000000000000e+00 0.000000000000000000e+00 0.000000000000000000e+00 1.824025963995854336e-15 -1.263388071787342819e-15 0.000000000000000000e+00 -1.474173408674837558e-15 -5.315723540699057254e-16 -2.120336450503426876e-15 4.602382828582303887e-16 7.641648209990928259e-16 0.000000000000000000e+00 0.000000000000000000e+00 0.000000000000000000e+00 0.000000000000000000e+00 -4.389941853592680584e-16 3.955983671608892635e-16 0.000000000000000000e+00 5.503781500307206293e-16 5.324552946135637034e-16
4.500000000000000000e+02 0.000000000000000000e+00 0.000000000000000000e+00 0.000000000000000000e+00 0.000000000000000000e+00 0.000000000000000000e+00 -1.261065150103537202e-01 4.206648360641047912e-02 -1.323615201044243961e-03 -3.540960711758870949e-01 3.286542374789835214e-02 -2.613121362317856744e-01 -3.216096542451477025e-02 2.159651434789590374e-01 2.149122477915006713e-02 4.325109615250651712e-02 -5.091631589322244411e-02 5.335418945802007651e-02 -4.941427616761958630e-01 1.902351455027607302e-02 -1.891471352308645437e-01 2.376440341830669267e-01 7.771591498996303915e-02 -6.527843028029894912e-02 -2.385933153985402289e-01 -1.139884705963671585e-01 -3.535951927923486338e-01 -5.990178105334580810e-02 -1.258683176768840561e-01 2.314863892434938231e-01 -1.050456056749207723e-02 -3.946414293011605429e-02 6.448017247651079142e-02 -1.846561948671037942e-02 -3.618994414588567327e-02 1.019507074573342276e-01 3.689553547923983459e-03 4.142207750795966377e-03 -1.130437300072997982e-02 1.071274400903591759e-02 4.031583903963956855e-02 1.838252725710040891e-01 1.192697334495055328e-01 6.810216066351820752e-02 -5.119273518857254679e-01 -1.748590820085281494e-01 -2.421454217600509662e-01 -4.801518073145355503e-01 5.728407660311244376e-01 7.491975346869063357e-02 -3.709081724402780722e-01 3.160126693375964885e-02 1.798716829273816931e+00 -4.593567969021360442e-01 -6.246389437741436401e-01 1.332862748224284521e+00 1.152277197816384380e+00 0.000000000000000000e+00 0.000000000000000000e+00 0.000000000000000000e+00 -4.175959436763776452e-15 -6.059196390345680611e-15 0.000000000000000000e+00 6.357333181734941121e-16 -6.268304776023189318e-15 0.000000000000000000e+00 -1.450142430010720116e-15 2.672741419650003972e-15 8.308237961350379846e-16 0.000000000000000000e+00 0.000000000000000000e+00 0.000000000000000000e+00 0.000000000000000000e+00 5.004525172040579609e-16 -2.710121113917242401e-15 0.000000000000000000e+00 2.057756467059115874e-15 -1.433899937996394176e-15 -1.450142430010720116e-15 2.672741419650003972e-15 8.308237961350379846e-16 0.000000000000000000e+00 8.424277603318840116e-16 -1.033707503720142053e-15 0.000000000000000000e+00 -6.847839735461567948e-16 -6.519976660387338498e-16 0.000000000000000000e+00 9.052415675793627667e-16 -2.814571892323948091e-16 -1.450142430010720116e-15 2.672741419650003972e-15 8.308237961350379846e-16 0.000000000000000000e+00 0.000000000000000000e+00 0.000000000000000000e+00 0.000000000000000000e+00 3.745833227049199302e-15 4.325476432117512588e-15 0.000000000000000000e+00 -2.746608897076023429e-16 9.321770409499260221e-16 -1.450142430010720116e-15 2.672741419650003972e-15 8.308237961350379846e-16 0.000000000000000000e+00 0.000000000000000000e+00 0.000000000000000000e+00 0.000000000000000000e+00 7.043507645772905180e-16 -4.771608246614808494e-17 0.000000000000000000e+00 7.005109128832058996e-16 7.811495674495370229e-16 2.885858408345108317e-01 -9.183556226639942588e-02 -1.841461912597339504e-02 -6.216715218533065412e-01 -1.576085053560884186e-01 4.076098286143217675e-01 -8.507700199661043516e-01 6.229603578441678113e-01 -5.561495206395015989e-02 -2.082478251039804606e-01 4.947459266875987582e-01 -1.108645788388292308e+00 0.000000000000000000e+00 0.000000000000000000e+00 0.000000000000000000e+00 -2.858078313272464824e-15 1.425908540820900489e-15 0.000000000000000000e+00 -3.258989611496540333e-15 3.801878663279325161e-15 0.000000000000000000e+00 -1.566820053595497921e-15 -5.170127602886463645e-17 3.281330803202898602e-16 0.000000000000000000e+00 0.000000000000000000e+00 0.000000000000000000e+00 0.000000000000000000e+00 9.312293389974301853e-18 -3.453802158814112343e-15 0.000000000000000000e+00 7.276793658449762686e-16 -2.074394727987455796e-15 -1.566820053595497921e-15 -5.170127602886463645e-17 3.281330803202898602e-16 0.000000000000000000e+00 3.739867082559608597e-16 -1.928993463202699921e-15 0.000000000000000000e+00 1.014302979062929279e-15 -3.857497952456858026e-15 0.000000000000000000e+00 8.239548005070586201e-16 -1.126471832536482456e-15 -1.566820053595497921e-15 -5.170127602886463645e-17 3.281330803202898602e-16 0.000000000000000000e+00 0.000000000000000000e+00 0.000000000000000000e+00 0.000000000000000000e+00 1.350290200090638600e-15 -7.649479890639980988e-16 0.000000000000000000e+00 -1.086953307390360204e-15 -1.947141744601481181e-16 -1.566820053595497921e-15 -5.170127602886463645e-17 3.281330803202898602e-16 0.000000000000000000e+00 0.000000000000000000e+00 0.000000000000000000e+00 0.000000000000000000e+00 -3.477761635617670925e-16 3.710817394962953902e-16 0.000000000000000000e+00 1.285582585607784200e-15 6.234633522337293354e-16
